<?xml version="1.0" encoding="utf-8"?>
<!-- Generator: Adobe Illustrator 19.0.0, SVG Export Plug-In . SVG Version: 6.00 Build 0)  -->
<svg version="1.1" id="Layer_1" xmlns="http://www.w3.org/2000/svg" xmlns:xlink="http://www.w3.org/1999/xlink" x="0px" y="0px"
	 viewBox="0 0 500 500" style="enable-background:new 0 0 500 500;" xml:space="preserve">
<style type="text/css">
	.st0{fill:url(#XMLID_17_);}
	.st1{fill:url(#XMLID_47_);}
	.st2{fill:url(#XMLID_48_);}
	.st3{fill:url(#XMLID_49_);}
	.st4{fill:url(#XMLID_50_);}
	.st5{fill:url(#XMLID_51_);}
	.st6{fill:url(#XMLID_52_);}
	.st7{fill:url(#XMLID_53_);}
	.st8{fill:#FFFFFF;}
	.st9{fill:url(#XMLID_54_);}
	.st10{fill:url(#XMLID_55_);}
	.st11{fill:url(#XMLID_56_);}
	.st12{fill:url(#XMLID_57_);}
	.st13{fill:#9E1209;}
	.st14{fill:url(#XMLID_58_);}
	.st15{fill:url(#XMLID_59_);}
	.st16{fill:url(#XMLID_60_);}
	.st17{fill:url(#XMLID_61_);}
</style>
<g id="XMLID_16_">
	
		<linearGradient id="XMLID_17_" gradientUnits="userSpaceOnUse" x1="0" y1="4.613958e-008" x2="1" y2="4.613958e-008" gradientTransform="matrix(-73.8358 -130.361 130.361 -73.8358 382.5031 456.2571)">
		<stop  offset="0" style="stop-color:#FB7655"/>
		<stop  offset="0" style="stop-color:#FB7655"/>
		<stop  offset="0.41" style="stop-color:#E42B1E"/>
		<stop  offset="0.99" style="stop-color:#990000"/>
		<stop  offset="1" style="stop-color:#990000"/>
	</linearGradient>
	<polygon id="XMLID_18_" class="st0" points="346.2,305.9 146.3,424.5 405.1,407 425,146.1 	"/>
	
		<linearGradient id="XMLID_47_" gradientUnits="userSpaceOnUse" x1="0" y1="-1.079616e-007" x2="1" y2="-1.079616e-007" gradientTransform="matrix(-95.1574 -63.8563 63.8563 -95.1574 419.2856 346.7475)">
		<stop  offset="0" style="stop-color:#871101"/>
		<stop  offset="0" style="stop-color:#871101"/>
		<stop  offset="0.99" style="stop-color:#911209"/>
		<stop  offset="1" style="stop-color:#911209"/>
	</linearGradient>
	<polygon id="XMLID_22_" class="st1" points="405.5,406.8 383.3,253.3 322.7,333.3 	"/>
	
		<linearGradient id="XMLID_48_" gradientUnits="userSpaceOnUse" x1="0" y1="-2.491652e-008" x2="1" y2="-2.491652e-008" gradientTransform="matrix(-95.1548 -63.8546 63.8546 -95.1548 343.1492 460.2071)">
		<stop  offset="0" style="stop-color:#871101"/>
		<stop  offset="0" style="stop-color:#871101"/>
		<stop  offset="0.99" style="stop-color:#911209"/>
		<stop  offset="1" style="stop-color:#911209"/>
	</linearGradient>
	<polygon id="XMLID_23_" class="st2" points="405.8,406.8 242.9,394 147.2,424.2 	"/>
	
		<linearGradient id="XMLID_49_" gradientUnits="userSpaceOnUse" x1="0" y1="-7.875587e-008" x2="1" y2="-7.875587e-008" gradientTransform="matrix(14.7514 95.8704 -95.8704 14.7514 143.3574 300.5234)">
		<stop  offset="0" style="stop-color:#FFFFFF"/>
		<stop  offset="0" style="stop-color:#FFFFFF"/>
		<stop  offset="0.23" style="stop-color:#E57252"/>
		<stop  offset="0.46" style="stop-color:#DE3B20"/>
		<stop  offset="0.99" style="stop-color:#A60003"/>
		<stop  offset="1" style="stop-color:#A60003"/>
	</linearGradient>
	<polygon id="XMLID_24_" class="st3" points="147.4,424.2 188.1,290.9 98.6,310 	"/>
	
		<linearGradient id="XMLID_50_" gradientUnits="userSpaceOnUse" x1="0" y1="1.174712e-007" x2="1" y2="1.174712e-007" gradientTransform="matrix(5.4353 97.8417 -97.8417 5.4353 244.8206 211.0046)">
		<stop  offset="0" style="stop-color:#FFFFFF"/>
		<stop  offset="0" style="stop-color:#FFFFFF"/>
		<stop  offset="0.23" style="stop-color:#E4714E"/>
		<stop  offset="0.56" style="stop-color:#BE1A0D"/>
		<stop  offset="0.99" style="stop-color:#A80D00"/>
		<stop  offset="1" style="stop-color:#A80D00"/>
	</linearGradient>
	<polygon id="XMLID_25_" class="st4" points="322.7,333.7 285.2,187 178,287.5 	"/>
	
		<linearGradient id="XMLID_51_" gradientUnits="userSpaceOnUse" x1="0" y1="2.410052e-007" x2="1" y2="2.410052e-007" gradientTransform="matrix(16.2715 70.1222 -70.1222 16.2715 334.8607 120.5689)">
		<stop  offset="0" style="stop-color:#FFFFFF"/>
		<stop  offset="0" style="stop-color:#FFFFFF"/>
		<stop  offset="0.18" style="stop-color:#E46342"/>
		<stop  offset="0.4" style="stop-color:#C82410"/>
		<stop  offset="0.99" style="stop-color:#A80D00"/>
		<stop  offset="1" style="stop-color:#A80D00"/>
	</linearGradient>
	<polygon id="XMLID_26_" class="st5" points="416.5,189.1 315.2,106.3 287,197.6 	"/>
	
		<linearGradient id="XMLID_52_" gradientUnits="userSpaceOnUse" x1="0" y1="2.563957e-008" x2="1" y2="2.563957e-008" gradientTransform="matrix(70.1175 -35.0588 35.0588 70.1175 285.1736 95.8747)">
		<stop  offset="0" style="stop-color:#FFFFFF"/>
		<stop  offset="0" style="stop-color:#FFFFFF"/>
		<stop  offset="0.54" style="stop-color:#C81F11"/>
		<stop  offset="0.99" style="stop-color:#BF0905"/>
		<stop  offset="1" style="stop-color:#BF0905"/>
	</linearGradient>
	<polygon id="XMLID_27_" class="st6" points="369.1,76.8 309.5,109.8 271.9,76.4 	"/>
	
		<linearGradient id="XMLID_53_" gradientUnits="userSpaceOnUse" x1="0" y1="7.540075e-008" x2="1" y2="7.540075e-008" gradientTransform="matrix(5.771 57.7794 -57.7794 5.771 81.8961 276.082)">
		<stop  offset="0" style="stop-color:#FFFFFF"/>
		<stop  offset="0" style="stop-color:#FFFFFF"/>
		<stop  offset="0.31" style="stop-color:#DE4024"/>
		<stop  offset="0.99" style="stop-color:#BF190B"/>
		<stop  offset="1" style="stop-color:#BF190B"/>
	</linearGradient>
	<polygon id="XMLID_28_" class="st7" points="75,354.8 100,309.2 79.8,255 	"/>
	<path id="XMLID_29_" class="st8" d="M78.4,253.3l20.3,57.6l88.3-19.8l100.8-93.7l28.4-90.3l-44.8-31.6L195.3,104
		c-24,22.3-70.5,66.5-72.2,67.3C121.4,172.1,92.4,227.1,78.4,253.3z"/>
	
		<linearGradient id="XMLID_54_" gradientUnits="userSpaceOnUse" x1="0" y1="-2.202796e-009" x2="1" y2="-2.202796e-009" gradientTransform="matrix(271.2857 -278.9576 278.9576 271.2857 42.2201 349.4797)">
		<stop  offset="0" style="stop-color:#BD0012"/>
		<stop  offset="0" style="stop-color:#BD0012"/>
		<stop  offset="7.000000e-002" style="stop-color:#FFFFFF"/>
		<stop  offset="0.17" style="stop-color:#FFFFFF"/>
		<stop  offset="0.27" style="stop-color:#C82F1C"/>
		<stop  offset="0.33" style="stop-color:#820C01"/>
		<stop  offset="0.46" style="stop-color:#A31601"/>
		<stop  offset="0.72" style="stop-color:#B31301"/>
		<stop  offset="0.99" style="stop-color:#E82609"/>
		<stop  offset="1" style="stop-color:#E82609"/>
	</linearGradient>
	<path id="XMLID_30_" class="st9" d="M149.8,149.8c52-51.5,119-82,144.7-56.1c25.7,26-1.6,89-53.5,140.5S122.8,317.9,97.1,292
		C71.3,266,97.8,201.3,149.8,149.8z"/>
	
		<linearGradient id="XMLID_55_" gradientUnits="userSpaceOnUse" x1="0" y1="1.918634e-007" x2="1" y2="1.918634e-007" gradientTransform="matrix(-81.7137 -20.1676 20.1676 -81.7137 250.0175 377.6173)">
		<stop  offset="0" style="stop-color:#8C0C01"/>
		<stop  offset="0" style="stop-color:#8C0C01"/>
		<stop  offset="0.54" style="stop-color:#990C00"/>
		<stop  offset="0.99" style="stop-color:#A80D0E"/>
		<stop  offset="1" style="stop-color:#A80D0E"/>
	</linearGradient>
	<path id="XMLID_31_" class="st10" d="M147.4,424.2l40.4-133.8l134.1,43.1C273.4,379,219.5,417.4,147.4,424.2z"/>
	
		<linearGradient id="XMLID_56_" gradientUnits="userSpaceOnUse" x1="0" y1="7.178005e-008" x2="1" y2="7.178005e-008" gradientTransform="matrix(-72.5918 -65.0618 65.0618 -72.5918 390.3689 279.5443)">
		<stop  offset="0" style="stop-color:#7E110B"/>
		<stop  offset="0" style="stop-color:#7E110B"/>
		<stop  offset="0.99" style="stop-color:#9E0C00"/>
		<stop  offset="1" style="stop-color:#9E0C00"/>
	</linearGradient>
	<path id="XMLID_33_" class="st11" d="M288,197.2l34.4,136.4c40.5-42.6,76.9-88.4,94.7-145L288,197.2z"/>
	
		<linearGradient id="XMLID_57_" gradientUnits="userSpaceOnUse" x1="0" y1="-1.940498e-008" x2="1" y2="-1.940498e-008" gradientTransform="matrix(-36.1593 -38.657 38.657 -36.1593 417.0383 160.1681)">
		<stop  offset="0" style="stop-color:#79130D"/>
		<stop  offset="0" style="stop-color:#79130D"/>
		<stop  offset="0.99" style="stop-color:#9E120B"/>
		<stop  offset="1" style="stop-color:#9E120B"/>
	</linearGradient>
	<path id="XMLID_34_" class="st12" d="M416.7,189.2c13.8-41.6,17-101.2-48-112.3l-53.3,29.4L416.7,189.2z"/>
	<path id="XMLID_35_" class="st13" d="M75,354.2c1.9,68.6,51.4,69.7,72.5,70.3L98.8,310.6L75,354.2z"/>
	
		<radialGradient id="XMLID_58_" cx="0" cy="0" r="1" gradientTransform="matrix(88.9575 0 0 88.9575 329.0807 215.7264)" gradientUnits="userSpaceOnUse">
		<stop  offset="0" style="stop-color:#A80D00"/>
		<stop  offset="0" style="stop-color:#A80D00"/>
		<stop  offset="0.99" style="stop-color:#7E0E08"/>
		<stop  offset="1" style="stop-color:#7E0E08"/>
	</radialGradient>
	<path id="XMLID_39_" class="st14" d="M288.2,197.4c31.1,19.1,93.9,57.6,95.1,58.3c2,1.1,27-42.3,32.7-66.8L288.2,197.4z"/>
	
		<radialGradient id="XMLID_59_" cx="0" cy="0" r="1" gradientTransform="matrix(118.2575 0 0 118.2575 205.8853 332.9574)" gradientUnits="userSpaceOnUse">
		<stop  offset="0" style="stop-color:#A30C00"/>
		<stop  offset="0" style="stop-color:#A30C00"/>
		<stop  offset="0.99" style="stop-color:#800E08"/>
		<stop  offset="1" style="stop-color:#800E08"/>
	</radialGradient>
	<path id="XMLID_40_" class="st15" d="M187.8,290.4l54,104.2c31.9-17.3,56.9-38.4,79.8-61L187.8,290.4z"/>
	
		<linearGradient id="XMLID_60_" gradientUnits="userSpaceOnUse" x1="0" y1="6.442497e-008" x2="1" y2="6.442497e-008" gradientTransform="matrix(-29.4676 -99.9741 99.9741 -29.4676 122.1134 424.0829)">
		<stop  offset="0" style="stop-color:#8B2114"/>
		<stop  offset="0" style="stop-color:#8B2114"/>
		<stop  offset="0.43" style="stop-color:#9E100A"/>
		<stop  offset="0.99" style="stop-color:#B3100C"/>
		<stop  offset="1" style="stop-color:#B3100C"/>
	</linearGradient>
	<path id="XMLID_41_" class="st16" d="M98.6,310.8l-7.6,91.1c14.4,19.7,34.3,21.4,55.1,19.9C131,384.2,100.9,309.2,98.6,310.8z"/>
	
		<linearGradient id="XMLID_61_" gradientUnits="userSpaceOnUse" x1="0" y1="-4.439062e-008" x2="1" y2="-4.439062e-008" gradientTransform="matrix(66.0641 29.1617 -29.1617 66.0641 348.1762 92.7938)">
		<stop  offset="0" style="stop-color:#B31000"/>
		<stop  offset="0" style="stop-color:#B31000"/>
		<stop  offset="0.44" style="stop-color:#910F08"/>
		<stop  offset="0.99" style="stop-color:#791C12"/>
		<stop  offset="1" style="stop-color:#791C12"/>
	</linearGradient>
	<path id="XMLID_42_" class="st17" d="M315.1,106.6l107.2,15.1c-5.7-24.3-23.3-39.9-53.3-44.8L315.1,106.6z"/>
</g>
</svg>
